<?xml version="1.0" encoding="UTF-8" standalone="no"?>
<svg
   xmlns:dc="http://purl.org/dc/elements/1.1/"
   xmlns:cc="http://creativecommons.org/ns#"
   xmlns:rdf="http://www.w3.org/1999/02/22-rdf-syntax-ns#"
   xmlns:svg="http://www.w3.org/2000/svg"
   xmlns="http://www.w3.org/2000/svg"
   viewBox="0 0 343.62668 166.66667"
   height="166.66667"
   width="343.62668"
   xml:space="preserve"
   id="svg2"
   version="1.1"><metadata
     id="metadata8"><rdf:RDF><cc:Work
         rdf:about=""><dc:format>image/svg+xml</dc:format><dc:type
           rdf:resource="http://purl.org/dc/dcmitype/StillImage" /></cc:Work></rdf:RDF></metadata><defs
     id="defs6" /><g
     transform="matrix(1.3333333,0,0,-1.3333333,0,166.66667)"
     id="g10"><g
       transform="scale(0.1)"
       id="g12"><path
         id="path14"
         style="fill:none;stroke:#000000;stroke-width:11.95530033;stroke-linecap:butt;stroke-linejoin:miter;stroke-miterlimit:10;stroke-dasharray:none;stroke-opacity:1"
         d="M 368.07,572.906 V 714.641 H 651.539" /><path
         id="path16"
         style="fill:#000000;fill-opacity:1;fill-rule:nonzero;stroke:none"
         d="m 665.711,714.641 c 0,7.828 -6.344,14.172 -14.172,14.172 -7.828,0 -14.176,-6.344 -14.176,-14.172 0,-7.828 6.348,-14.176 14.176,-14.176 7.828,0 14.172,6.348 14.172,14.176" /><path
         id="path18"
         style="fill:none;stroke:#000000;stroke-width:11.95530033;stroke-linecap:butt;stroke-linejoin:miter;stroke-miterlimit:10;stroke-dasharray:none;stroke-opacity:1"
         d="m 665.711,714.641 c 0,7.828 -6.344,14.172 -14.172,14.172 -7.828,0 -14.176,-6.344 -14.176,-14.172 0,-7.828 6.348,-14.176 14.176,-14.176 7.828,0 14.172,6.348 14.172,14.176 z" /><path
         id="path20"
         style="fill:none;stroke:#000000;stroke-width:11.95530033;stroke-linecap:butt;stroke-linejoin:miter;stroke-miterlimit:10;stroke-dasharray:none;stroke-opacity:1"
         d="m 722.406,360.305 h -70.867 v 708.675 h 70.867" /><path
         id="path22"
         style="fill:none;stroke:#000000;stroke-width:11.95530033;stroke-linecap:butt;stroke-linejoin:miter;stroke-miterlimit:10;stroke-dasharray:none;stroke-opacity:1"
         d="M 722.406,714.641 H 651.539" /><path
         id="path24"
         style="fill:none;stroke:#000000;stroke-width:11.95530033;stroke-linecap:butt;stroke-linejoin:miter;stroke-miterlimit:10;stroke-dasharray:none;stroke-opacity:1"
         d="m 722.406,1068.98 h 70.867 c 0,19.56 15.864,35.43 35.434,35.43 19.566,0 35.434,-15.87 35.434,-35.43 v 0 c 0,19.56 15.863,35.43 35.433,35.43 19.567,0 35.434,-15.87 35.434,-35.43 v 0 c 0,19.56 15.863,35.43 35.433,35.43 19.567,0 35.429,-15.87 35.429,-35.43 v 0 c 0,19.56 15.87,35.43 35.43,35.43 19.58,0 35.44,-15.87 35.44,-35.43 h 70.87" /><path
         id="path26"
         style="fill:none;stroke:#000000;stroke-width:11.95530033;stroke-linecap:butt;stroke-linejoin:miter;stroke-miterlimit:10;stroke-dasharray:none;stroke-opacity:1"
         d="M 722.406,714.641 H 828.707" /><path
         id="path28"
         style="fill:none;stroke:#000000;stroke-width:11.95530033;stroke-linecap:butt;stroke-linejoin:miter;stroke-miterlimit:10;stroke-dasharray:none;stroke-opacity:1"
         d="m 1041.3,714.641 c 0,58.707 -47.585,106.3 -106.292,106.3 -58.711,0 -106.301,-47.593 -106.301,-106.3 0,-58.711 47.59,-106.301 106.301,-106.301 58.707,0 106.292,47.59 106.292,106.301 z" /><path
         id="path30"
         style="fill:none;stroke:#000000;stroke-width:11.95530033;stroke-linecap:butt;stroke-linejoin:miter;stroke-miterlimit:10;stroke-dasharray:none;stroke-opacity:1"
         d="m 1041.3,714.641 h 106.31" /><path
         id="path32"
         style="fill:none;stroke:#000000;stroke-width:11.95530033;stroke-linecap:butt;stroke-linejoin:miter;stroke-miterlimit:10;stroke-dasharray:none;stroke-opacity:1"
         d="M 935.008,820.941 V 608.34" /><path
         id="path34"
         style="fill:none;stroke:#000000;stroke-width:11.95530033;stroke-linecap:butt;stroke-linejoin:miter;stroke-miterlimit:10;stroke-dasharray:none;stroke-opacity:1"
         d="m 1147.61,714.641 h 70.86" /><path
         id="path36"
         style="fill:none;stroke:#000000;stroke-width:11.95530033;stroke-linecap:butt;stroke-linejoin:miter;stroke-miterlimit:10;stroke-dasharray:none;stroke-opacity:1"
         d="M 722.406,360.305 H 899.574" /><path
         id="path38"
         style="fill:#000000;fill-opacity:1;fill-rule:nonzero;stroke:none"
         d="m 899.574,275.266 h 21.2578 V 445.348 H 899.574 Z" /><path
         id="path40"
         style="fill:none;stroke:#000000;stroke-width:11.95530033;stroke-linecap:butt;stroke-linejoin:miter;stroke-miterlimit:10;stroke-dasharray:none;stroke-opacity:1"
         d="m 899.574,275.266 h 21.2578 V 445.348 H 899.574 Z" /><path
         id="path42"
         style="fill:#000000;fill-opacity:1;fill-rule:nonzero;stroke:none"
         d="m 949.18,275.266 h 21.2617 V 445.348 H 949.18 Z" /><path
         id="path44"
         style="fill:none;stroke:#000000;stroke-width:11.95530033;stroke-linecap:butt;stroke-linejoin:miter;stroke-miterlimit:10;stroke-dasharray:none;stroke-opacity:1"
         d="m 949.18,275.266 h 21.2617 V 445.348 H 949.18 Z" /><path
         id="path46"
         style="fill:none;stroke:#000000;stroke-width:11.95530033;stroke-linecap:butt;stroke-linejoin:miter;stroke-miterlimit:10;stroke-dasharray:none;stroke-opacity:1"
         d="M 970.441,360.305 H 1147.61" /><path
         id="path48"
         style="fill:none;stroke:#000000;stroke-width:11.95530033;stroke-linecap:butt;stroke-linejoin:miter;stroke-miterlimit:10;stroke-dasharray:none;stroke-opacity:1"
         d="m 1147.61,360.305 h 70.86 v 708.675 h -70.86" /><path
         id="path50"
         style="fill:#000000;fill-opacity:1;fill-rule:nonzero;stroke:none"
         d="m 1232.65,714.641 c 0,7.828 -6.35,14.172 -14.18,14.172 -7.83,0 -14.17,-6.344 -14.17,-14.172 0,-7.828 6.34,-14.176 14.17,-14.176 7.83,0 14.18,6.348 14.18,14.176" /><path
         id="path52"
         style="fill:none;stroke:#000000;stroke-width:11.95530033;stroke-linecap:butt;stroke-linejoin:miter;stroke-miterlimit:10;stroke-dasharray:none;stroke-opacity:1"
         d="m 1232.65,714.641 c 0,7.828 -6.35,14.172 -14.18,14.172 -7.83,0 -14.17,-6.344 -14.17,-14.172 0,-7.828 6.34,-14.176 14.17,-14.176 7.83,0 14.18,6.348 14.18,14.176 z" /><path
         id="path54"
         style="fill:none;stroke:#000000;stroke-width:11.95530033;stroke-linecap:butt;stroke-linejoin:miter;stroke-miterlimit:10;stroke-dasharray:none;stroke-opacity:1"
         d="m 1218.47,714.641 h 283.47" /><path
         id="path56"
         style="fill:#000000;fill-opacity:1;fill-rule:nonzero;stroke:none"
         d="m 1516.12,714.641 c 0,7.828 -6.35,14.172 -14.18,14.172 -7.83,0 -14.17,-6.344 -14.17,-14.172 0,-7.828 6.34,-14.176 14.17,-14.176 7.83,0 14.18,6.348 14.18,14.176" /><path
         id="path58"
         style="fill:none;stroke:#000000;stroke-width:11.95530033;stroke-linecap:butt;stroke-linejoin:miter;stroke-miterlimit:10;stroke-dasharray:none;stroke-opacity:1"
         d="m 1516.12,714.641 c 0,7.828 -6.35,14.172 -14.18,14.172 -7.83,0 -14.17,-6.344 -14.17,-14.172 0,-7.828 6.34,-14.176 14.17,-14.176 7.83,0 14.18,6.348 14.18,14.176 z" /><path
         id="path60"
         style="fill:none;stroke:#000000;stroke-width:11.95530033;stroke-linecap:butt;stroke-linejoin:miter;stroke-miterlimit:10;stroke-dasharray:none;stroke-opacity:1"
         d="m 1572.81,431.172 h -70.87 v 566.937 h 70.87" /><path
         id="path62"
         style="fill:none;stroke:#000000;stroke-width:11.95530033;stroke-linecap:butt;stroke-linejoin:miter;stroke-miterlimit:10;stroke-dasharray:none;stroke-opacity:1"
         d="m 1572.81,998.109 h 70.87 c 0,19.571 15.86,35.431 35.43,35.431 19.57,0 35.43,-15.86 35.43,-35.431 v 0 c 0,19.571 15.87,35.431 35.44,35.431 19.57,0 35.43,-15.86 35.43,-35.431 v 0 c 0,19.571 15.86,35.431 35.43,35.431 19.57,0 35.44,-15.86 35.44,-35.431 v 0 c 0,19.571 15.86,35.431 35.43,35.431 19.57,0 35.43,-15.86 35.43,-35.431 h 70.87" /><path
         id="path64"
         style="fill:none;stroke:#000000;stroke-width:11.95530033;stroke-linecap:butt;stroke-linejoin:miter;stroke-miterlimit:10;stroke-dasharray:none;stroke-opacity:1"
         d="m 1572.81,431.172 h 177.17" /><path
         id="path66"
         style="fill:#000000;fill-opacity:1;fill-rule:nonzero;stroke:none"
         d="m 1749.98,346.129 h 21.2578 V 516.215 H 1749.98 Z" /><path
         id="path68"
         style="fill:none;stroke:#000000;stroke-width:11.95530033;stroke-linecap:butt;stroke-linejoin:miter;stroke-miterlimit:10;stroke-dasharray:none;stroke-opacity:1"
         d="m 1749.98,346.129 h 21.2578 V 516.215 H 1749.98 Z" /><path
         id="path70"
         style="fill:#000000;fill-opacity:1;fill-rule:nonzero;stroke:none"
         d="m 1799.59,346.129 h 21.2578 V 516.215 H 1799.59 Z" /><path
         id="path72"
         style="fill:none;stroke:#000000;stroke-width:11.95530033;stroke-linecap:butt;stroke-linejoin:miter;stroke-miterlimit:10;stroke-dasharray:none;stroke-opacity:1"
         d="m 1799.59,346.129 h 21.2578 V 516.215 H 1799.59 Z" /><path
         id="path74"
         style="fill:none;stroke:#000000;stroke-width:11.95530033;stroke-linecap:butt;stroke-linejoin:miter;stroke-miterlimit:10;stroke-dasharray:none;stroke-opacity:1"
         d="m 1820.84,431.172 h 177.17" /><path
         id="path76"
         style="fill:none;stroke:#000000;stroke-width:11.95530033;stroke-linecap:butt;stroke-linejoin:miter;stroke-miterlimit:10;stroke-dasharray:none;stroke-opacity:1"
         d="m 1998.01,431.172 h 70.87 v 566.937 h -70.87" /><path
         id="path78"
         style="fill:#000000;fill-opacity:1;fill-rule:nonzero;stroke:none"
         d="m 2083.05,714.641 c 0,7.828 -6.34,14.172 -14.17,14.172 -7.83,0 -14.18,-6.344 -14.18,-14.172 0,-7.828 6.35,-14.176 14.18,-14.176 7.83,0 14.17,6.348 14.17,14.176" /><path
         id="path80"
         style="fill:none;stroke:#000000;stroke-width:11.95530033;stroke-linecap:butt;stroke-linejoin:miter;stroke-miterlimit:10;stroke-dasharray:none;stroke-opacity:1"
         d="m 2083.05,714.641 c 0,7.828 -6.34,14.172 -14.17,14.172 -7.83,0 -14.18,-6.344 -14.18,-14.172 0,-7.828 6.35,-14.176 14.18,-14.176 7.83,0 14.17,6.348 14.17,14.176 z" /><path
         id="path82"
         style="fill:none;stroke:#000000;stroke-width:11.95530033;stroke-linecap:butt;stroke-linejoin:miter;stroke-miterlimit:10;stroke-dasharray:none;stroke-opacity:1"
         d="m 2068.88,714.641 h 283.47 V 572.906" /><path
         id="path84"
         style="fill:none;stroke:#000000;stroke-width:11.95530033;stroke-linecap:butt;stroke-linejoin:miter;stroke-miterlimit:10;stroke-dasharray:none;stroke-opacity:1"
         d="M 2352.35,147.703 V 261.09" /><path
         id="path86"
         style="fill:#000000;fill-opacity:1;fill-rule:nonzero;stroke:none"
         d="m 2309.83,261.09 h 85.03 l -42.51,99.215 z" /><path
         id="path88"
         style="fill:none;stroke:#000000;stroke-width:11.95530033;stroke-linecap:butt;stroke-linejoin:miter;stroke-miterlimit:10;stroke-dasharray:none;stroke-opacity:1"
         d="m 2309.83,261.09 h 85.03 l -42.51,99.215 z" /><path
         id="path90"
         style="fill:#000000;fill-opacity:1;fill-rule:nonzero;stroke:none"
         d="m 2309.83,459.52 h 85.03 l -42.51,-99.215 z" /><path
         id="path92"
         style="fill:none;stroke:#000000;stroke-width:11.95530033;stroke-linecap:butt;stroke-linejoin:miter;stroke-miterlimit:10;stroke-dasharray:none;stroke-opacity:1"
         d="m 2309.83,459.52 h 85.03 l -42.51,-99.215 z" /><path
         id="path94"
         style="fill:none;stroke:#000000;stroke-width:11.95530033;stroke-linecap:butt;stroke-linejoin:miter;stroke-miterlimit:10;stroke-dasharray:none;stroke-opacity:1"
         d="M 2352.35,459.52 V 572.906" /><path
         id="path96"
         style="fill:none;stroke:#000000;stroke-width:11.95530033;stroke-linecap:butt;stroke-linejoin:miter;stroke-miterlimit:10;stroke-dasharray:none;stroke-opacity:1"
         d="M 2352.35,147.703 V 5.96875 H 368.07 V 147.703" /><path
         id="path98"
         style="fill:none;stroke:#000000;stroke-width:11.95530033;stroke-linecap:butt;stroke-linejoin:miter;stroke-miterlimit:10;stroke-dasharray:none;stroke-opacity:1"
         d="M 368.07,147.703 V 254.004" /><path
         id="path100"
         style="fill:none;stroke:#000000;stroke-width:11.95530033;stroke-linecap:butt;stroke-linejoin:miter;stroke-miterlimit:10;stroke-dasharray:none;stroke-opacity:1"
         d="m 368.07,466.605 c -58.711,0 -106.3,-47.589 -106.3,-106.3 0,-58.707 47.589,-106.301 106.3,-106.301 58.707,0 106.301,47.594 106.301,106.301 0,58.711 -47.594,106.3 -106.301,106.3 z" /><path
         id="path102"
         style="fill:none;stroke:#000000;stroke-width:11.95530033;stroke-linecap:butt;stroke-linejoin:miter;stroke-miterlimit:10;stroke-dasharray:none;stroke-opacity:1"
         d="M 368.07,466.605 V 572.906" /><path
         id="path104"
         style="fill:none;stroke:#000000;stroke-width:11.95530033;stroke-linecap:butt;stroke-linejoin:miter;stroke-miterlimit:10;stroke-dasharray:none;stroke-opacity:1"
         d="M 368.07,254.004 V 466.605" /><path
         id="path106"
         style="fill:none;stroke:#000000;stroke-width:11.95530033;stroke-linecap:butt;stroke-linejoin:miter;stroke-miterlimit:10;stroke-dasharray:none;stroke-opacity:1"
         d="M 190.902,643.773 V 115.094" /><path
         id="path108"
         style="fill:#000000;fill-opacity:1;fill-rule:nonzero;stroke:none"
         d="m 190.902,76.8359 c 3.188,15.9414 9.563,44.6331 23.911,63.7621 -17.536,-15.942 -30.286,-15.942 -47.821,0 14.348,-19.129 20.723,-47.8207 23.91,-63.7621" /><g
         transform="scale(10)"
         id="g110"><text
           id="text114"
           style="font-variant:normal;font-weight:normal;font-size:9.96259975px;font-family:CMMI10;-inkscape-font-specification:CMMI10;writing-mode:lr-tb;fill:#000000;fill-opacity:1;fill-rule:nonzero;stroke:none"
           transform="matrix(1,0,0,-1,87.8762,114.87)"><tspan
             id="tspan112"
             y="0"
             x="0">L</tspan></text>
<text
           id="text118"
           style="font-variant:normal;font-weight:normal;font-size:6.97380018px;font-family:CMR7;-inkscape-font-specification:CMR7;writing-mode:lr-tb;fill:#000000;fill-opacity:1;fill-rule:nonzero;stroke:none"
           transform="matrix(1,0,0,-1,94.65589,113.37625)"><tspan
             id="tspan116"
             y="0"
             x="0">1</tspan></text>
<text
           id="text122"
           style="font-variant:normal;font-weight:normal;font-size:9.96259975px;font-family:CMMI10;-inkscape-font-specification:CMMI10;writing-mode:lr-tb;fill:#000000;fill-opacity:1;fill-rule:nonzero;stroke:none"
           transform="matrix(1,0,0,-1,83.04609,88.81605)"><tspan
             id="tspan120"
             y="0"
             x="0">i</tspan></text>
<text
           id="text126"
           style="font-variant:normal;font-weight:normal;font-size:6.97380018px;font-family:CMR7;-inkscape-font-specification:CMR7;writing-mode:lr-tb;fill:#000000;fill-opacity:1;fill-rule:nonzero;stroke:none"
           transform="matrix(1,0,0,-1,86.47812,87.32113)"><tspan
             id="tspan124"
             y="0"
             x="0">1</tspan></text>
<text
           id="text130"
           style="font-variant:normal;font-weight:normal;font-size:9.96259975px;font-family:CMR10;-inkscape-font-specification:CMR10;writing-mode:lr-tb;fill:#000000;fill-opacity:1;fill-rule:nonzero;stroke:none"
           transform="matrix(1,0,0,-1,92.60781,88.81605)"><tspan
             id="tspan128"
             y="0"
             x="0">(</tspan></text>
<text
           id="text134"
           style="font-variant:normal;font-weight:normal;font-size:9.96259975px;font-family:CMMI10;-inkscape-font-specification:CMMI10;writing-mode:lr-tb;fill:#000000;fill-opacity:1;fill-rule:nonzero;stroke:none"
           transform="matrix(1,0,0,-1,96.48203,88.81605)"><tspan
             id="tspan132"
             y="0"
             x="0">t</tspan></text>
<text
           id="text138"
           style="font-variant:normal;font-weight:normal;font-size:9.96259975px;font-family:CMR10;-inkscape-font-specification:CMR10;writing-mode:lr-tb;fill:#000000;fill-opacity:1;fill-rule:nonzero;stroke:none"
           transform="matrix(1,0,0,-1,100.08008,88.81605)"><tspan
             id="tspan136"
             y="0"
             x="0">)</tspan></text>
<text
           id="text142"
           style="font-variant:normal;font-weight:normal;font-size:9.96259975px;font-family:CMMI10;-inkscape-font-specification:CMMI10;writing-mode:lr-tb;fill:#000000;fill-opacity:1;fill-rule:nonzero;stroke:none"
           transform="matrix(1,0,0,-1,87.70508,48.96485)"><tspan
             id="tspan140"
             y="0"
             x="0">C</tspan></text>
<text
           id="text146"
           style="font-variant:normal;font-weight:normal;font-size:6.97380018px;font-family:CMR7;-inkscape-font-specification:CMR7;writing-mode:lr-tb;fill:#000000;fill-opacity:1;fill-rule:nonzero;stroke:none"
           transform="matrix(1,0,0,-1,94.82617,47.46993)"><tspan
             id="tspan144"
             y="0"
             x="0">1</tspan></text>
<text
           id="text150"
           style="font-variant:normal;font-weight:normal;font-size:9.96259975px;font-family:CMMI10;-inkscape-font-specification:CMMI10;writing-mode:lr-tb;fill:#000000;fill-opacity:1;fill-rule:nonzero;stroke:none"
           transform="matrix(1,0,0,-1,172.91487,107.78403)"><tspan
             id="tspan148"
             y="0"
             x="0">L</tspan></text>
<text
           id="text154"
           style="font-variant:normal;font-weight:normal;font-size:6.97380018px;font-family:CMR7;-inkscape-font-specification:CMR7;writing-mode:lr-tb;fill:#000000;fill-opacity:1;fill-rule:nonzero;stroke:none"
           transform="matrix(1,0,0,-1,179.69495,106.28911)"><tspan
             id="tspan152"
             y="0"
             x="0">2</tspan></text>
<text
           id="text158"
           style="font-variant:normal;font-weight:normal;font-size:9.96259975px;font-family:CMMI10;-inkscape-font-specification:CMMI10;writing-mode:lr-tb;fill:#000000;fill-opacity:1;fill-rule:nonzero;stroke:none"
           transform="matrix(1,0,0,-1,172.74495,56.05121)"><tspan
             id="tspan156"
             y="0"
             x="0">C</tspan></text>
<text
           id="text162"
           style="font-variant:normal;font-weight:normal;font-size:6.97380018px;font-family:CMR7;-inkscape-font-specification:CMR7;writing-mode:lr-tb;fill:#000000;fill-opacity:1;fill-rule:nonzero;stroke:none"
           transform="matrix(1,0,0,-1,179.86487,54.55707)"><tspan
             id="tspan160"
             y="0"
             x="0">2</tspan></text>
<text
           id="text166"
           style="font-variant:normal;font-weight:normal;font-size:9.96259975px;font-family:CMMI10;-inkscape-font-specification:CMMI10;writing-mode:lr-tb;fill:#000000;fill-opacity:1;fill-rule:nonzero;stroke:none"
           transform="matrix(1,0,0,-1,244.40897,33.37387)"><tspan
             id="tspan164"
             y="0"
             x="0">J</tspan></text>
<text
           id="text170"
           style="font-variant:normal;font-weight:normal;font-size:6.97380018px;font-family:CMR7;-inkscape-font-specification:CMR7;writing-mode:lr-tb;fill:#000000;fill-opacity:1;fill-rule:nonzero;stroke:none"
           transform="matrix(1,0,0,-1,249.93319,31.88012)"><tspan
             id="tspan168"
             y="0"
             x="0">1</tspan></text>
<text
           id="text174"
           style="font-variant:normal;font-weight:normal;font-size:9.96259975px;font-family:CMMI10;-inkscape-font-specification:CMMI10;writing-mode:lr-tb;fill:#000000;fill-opacity:1;fill-rule:nonzero;stroke:none"
           transform="matrix(1,0,0,-1,3.32119,33.37387)"><tspan
             id="tspan172"
             y="0"
             x="0">V</tspan></text>
<text
           id="text178"
           style="font-variant:normal;font-weight:normal;font-size:6.97380018px;font-family:CMR7;-inkscape-font-specification:CMR7;writing-mode:lr-tb;fill:#000000;fill-opacity:1;fill-rule:nonzero;stroke:none"
           transform="matrix(1,0,0,-1,9.13213,31.88012)"><tspan
             id="tspan176"
             y="0"
             x="0">0</tspan></text>
</g></g></g></svg>